# xmcd CD database file
#
# Track frame offsets:
#	150
#	22242
#	35297
#	52022
#	72475
#	90617
#	111842
#	128720
#	146605
#	166087
#	184805
#	199542
#
# Disc length: 2810 seconds
#
# Revision: 1
# Processed by: cddbd v1.5.2PL0 Copyright (c) Steve Scherf et al.
# Submitted via: CDex 1.51
#
DISCID=a80af80c
DTITLE=Enuff Z'nuff - Paraphernalia
DYEAR=1998
DGENRE=Rock
TTITLE0=Freak
TTITLE1=Top Of The Hill
TTITLE2=Ain't It Funny
TTITLE3=Believe In Love
TTITLE4=Habit
TTITLE5=Baby You're The Greatest
TTITLE6=Someday
TTITLE7=Unemotional
TTITLE8=Invisible
TTITLE9=All Alone
TTITLE10=Everything Works If You Let It
TTITLE11=Loser Of The World
EXTD=YEAR: 1998
EXTT0=
EXTT1=
EXTT2=
EXTT3=
EXTT4=
EXTT5=
EXTT6=
EXTT7=
EXTT8=
EXTT9=
EXTT10=
EXTT11=
PLAYORDER=
